<svg width="20" height="20" viewBox="0 0 20 20" fill="none" xmlns="http://www.w3.org/2000/svg">
<g clip-path="url(#clip0_303_15)">
<path opacity="0.3" d="M12.5 0H17.5C18.8789 0 20 1.12109 20 2.5V7.5C20 7.84375 19.7188 8.125 19.375 8.125H17.3438C17.0859 8.125 16.875 8.33594 16.875 8.59375V8.75C16.875 9.44141 16.3164 10 15.625 10C14.9336 10 14.375 9.44141 14.375 8.75V8.59375C14.375 8.33594 14.1641 8.125 13.9062 8.125H12.5C12.1562 8.125 11.875 7.84375 11.875 7.5V6.25C11.875 5.90625 12.1562 5.625 12.5 5.625H13.125C13.8164 5.625 14.375 5.06641 14.375 4.375C14.375 3.68359 13.8164 3.125 13.125 3.125H12.5C12.1562 3.125 11.875 2.84375 11.875 2.5V0.625C11.875 0.28125 12.1562 0 12.5 0ZM8.75 17.5V20H2.5C1.12109 20 0 18.8789 0 17.5V11.25H2.5C2.84375 11.25 3.125 10.9688 3.125 10.625V10C3.125 9.30859 3.68359 8.75 4.375 8.75C5.06641 8.75 5.625 9.30859 5.625 10V10.625C5.625 10.9688 5.90625 11.25 6.25 11.25H8.75V13.75C8.75 14.0938 8.46875 14.375 8.125 14.375H7.5C6.80859 14.375 6.25 14.9336 6.25 15.625C6.25 16.3164 6.80859 16.875 7.5 16.875H8.125C8.46875 16.875 8.75 17.1562 8.75 17.5Z" fill="#666666"/>
<path d="M0 11.25H2.5C2.84375 11.25 3.125 10.9688 3.125 10.625V10C3.125 9.30859 3.68359 8.75 4.375 8.75C5.06641 8.75 5.625 9.30859 5.625 10V10.625C5.625 10.9688 5.90625 11.25 6.25 11.25H8.75V8.59375C8.75 8.33594 8.96094 8.125 9.21875 8.125H9.375C10.0664 8.125 10.625 7.56641 10.625 6.875C10.625 6.18359 10.0664 5.625 9.375 5.625H9.21875C8.96094 5.625 8.75 5.41406 8.75 5.15625V3.125C8.75 2.78125 8.46875 2.5 8.125 2.5H2.5C1.12109 2.5 0 3.62109 0 5V11.25ZM8.75 11.25V13.75C8.75 14.0938 8.46875 14.375 8.125 14.375H7.5C6.80859 14.375 6.25 14.9336 6.25 15.625C6.25 16.3164 6.80859 16.875 7.5 16.875H8.125C8.46875 16.875 8.75 17.1563 8.75 17.5V20H15C16.3789 20 17.5 18.8789 17.5 17.5V11.875C17.5 11.5313 17.2188 11.25 16.875 11.25H15C14.6563 11.25 14.375 11.5313 14.375 11.875V12.5C14.375 13.1914 13.8164 13.75 13.125 13.75C12.4336 13.75 11.875 13.1914 11.875 12.5V11.875C11.875 11.5313 11.5938 11.25 11.25 11.25H8.75Z" fill="#666666"/>
</g>
<defs>
<clipPath id="clip0_303_15">
<rect width="20" height="20" fill="white"/>
</clipPath>
</defs>
</svg>
